<svg width="16" height="16" viewBox="0 0 16 16" fill="none" xmlns="http://www.w3.org/2000/svg">
<path d="M6.34998 3.8C6.34998 4.49036 5.79033 5.05 5.09998 5.05C4.40962 5.05 3.84998 4.49036 3.84998 3.8C3.84998 3.10965 4.40962 2.55 5.09998 2.55C5.79033 2.55 6.34998 3.10965 6.34998 3.8Z" fill="currentColor"/>
<path d="M12.15 3.8C12.15 4.49036 11.5903 5.05 10.9 5.05C10.2096 5.05 9.64998 4.49036 9.64998 3.8C9.64998 3.10965 10.2096 2.55 10.9 2.55C11.5903 2.55 12.15 3.10965 12.15 3.8Z" fill="currentColor"/>
<path d="M6.34998 8C6.34998 8.69035 5.79033 9.25 5.09998 9.25C4.40962 9.25 3.84998 8.69035 3.84998 8C3.84998 7.30964 4.40962 6.75 5.09998 6.75C5.79033 6.75 6.34998 7.30964 6.34998 8Z" fill="currentColor"/>
<path d="M12.15 8C12.15 8.69035 11.5903 9.25 10.9 9.25C10.2096 9.25 9.64998 8.69035 9.64998 8C9.64998 7.30964 10.2096 6.75 10.9 6.75C11.5903 6.75 12.15 7.30964 12.15 8Z" fill="currentColor"/>
<path d="M6.34998 12.2C6.34998 12.8904 5.79033 13.45 5.09998 13.45C4.40962 13.45 3.84998 12.8904 3.84998 12.2C3.84998 11.5096 4.40962 10.95 5.09998 10.95C5.79033 10.95 6.34998 11.5096 6.34998 12.2Z" fill="currentColor"/>
<path d="M12.15 12.2C12.15 12.8904 11.5903 13.45 10.9 13.45C10.2096 13.45 9.64998 12.8904 9.64998 12.2C9.64998 11.5096 10.2096 10.95 10.9 10.95C11.5903 10.95 12.15 11.5096 12.15 12.2Z" fill="currentColor"/>
</svg>
